<svg width="32" height="33" viewBox="0 0 32 33" fill="none" xmlns="http://www.w3.org/2000/svg">
<path d="M27 12.4567H28.3333" stroke="white" stroke-width="1.5" stroke-linecap="round" stroke-linejoin="round"/>
<path d="M15 17.71V25.79" stroke="white" stroke-width="1.5" stroke-linecap="round" stroke-linejoin="round"/>
<path d="M19 16.1633V27.19" stroke="white" stroke-width="1.5" stroke-linecap="round" stroke-linejoin="round"/>
<path d="M23 17.71V25.79" stroke="white" stroke-width="1.5" stroke-linecap="round" stroke-linejoin="round"/>
<path fill-rule="evenodd" clip-rule="evenodd" d="M24.06 31.046H13.94C12.316 31.046 11 29.73 11 28.106V12.454H27V28.106C27 29.73 25.684 31.046 24.06 31.046Z" stroke="white" stroke-width="1.5" stroke-linecap="round" stroke-linejoin="round"/>
<path fill-rule="evenodd" clip-rule="evenodd" d="M18.3933 24.592H8.27334C6.64934 24.592 5.33334 23.276 5.33334 21.652V6H21.3333V21.652C21.3333 23.276 20.0173 24.592 18.3933 24.592Z" stroke="white" stroke-width="1.5" stroke-linecap="round" stroke-linejoin="round"/>
<path d="M24.3333 12.454L23.3493 9.38066C23.172 8.82866 22.6587 8.45399 22.08 8.45399H15.92C15.34 8.45399 14.8267 8.82866 14.6507 9.38066L13.6667 12.454" stroke="white" stroke-width="1.5" stroke-linecap="round" stroke-linejoin="round"/>
<path d="M18.6667 6L17.6827 2.92667C17.5053 2.37467 16.992 2 16.4133 2H10.2533C9.67333 2 9.16 2.37467 8.984 2.92667L8 6" stroke="white" stroke-width="1.5" stroke-linecap="round" stroke-linejoin="round"/>
<path d="M9.66666 12.4567H11" stroke="white" stroke-width="1.5" stroke-linecap="round" stroke-linejoin="round"/>
<path d="M4 6.00267H5.33333" stroke="white" stroke-width="1.5" stroke-linecap="round" stroke-linejoin="round"/>
</svg>
