<svg width="32" height="32" viewBox="0 0 32 32" fill="none" xmlns="http://www.w3.org/2000/svg">
<path fill-rule="evenodd" clip-rule="evenodd" d="M22.8853 6.552L19.1147 2.78133C18.6147 2.28133 17.936 2 17.2293 2H7.66667C6.19333 2 5 3.19333 5 4.66667V23.3333C5 24.8067 6.19333 26 7.66667 26H21C22.4733 26 23.6667 24.8067 23.6667 23.3333V8.43733C23.6667 7.73067 23.3853 7.052 22.8853 6.552V6.552Z" stroke="white" stroke-width="1.5" stroke-linecap="round" stroke-linejoin="round"/>
<path fill-rule="evenodd" clip-rule="evenodd" d="M25.2187 9.802L21.448 6.03133C20.948 5.53133 20.2693 5.25 19.5627 5.25H10C8.52668 5.25 7.33334 6.44333 7.33334 7.91667V26.5833C7.33334 28.0567 8.52668 29.25 10 29.25H23.3333C24.8067 29.25 26 28.0567 26 26.5833V11.6873C26 10.9807 25.7187 10.302 25.2187 9.802V9.802Z" stroke="white" stroke-width="1.5" stroke-linecap="round" stroke-linejoin="round"/>
<path d="M23.6667 8.66667H18.3333C17.5973 8.66667 17 8.06933 17 7.33333V2" stroke="white" stroke-width="1.5" stroke-linecap="round" stroke-linejoin="round"/>
<path d="M26 11.9167H20.6667C19.9307 11.9167 19.3333 11.3193 19.3333 10.5833V5.25" stroke="white" stroke-width="1.5" stroke-linecap="round" stroke-linejoin="round"/>
</svg>
